# Blender v2.82 (sub 1) OBJ File: 'SpaceShip.blend'
# www.blender.org
v -1.000000 -1.000000 1.000000
v -1.000000 1.000000 1.000000
v -1.000000 -1.000000 -1.000000
v -1.000000 1.000000 -1.000000
v 1.000000 -1.000000 1.000000
v 1.000000 1.000000 1.000000
v 1.000000 -1.000000 -1.000000
v 1.000000 1.000000 -1.000000
v 6.936371 0.351215 -0.351215
v 6.936371 -0.351215 -0.351215
v 6.936371 -0.351215 0.351215
v 6.936371 0.351215 0.351215
v 7.444406 0.192381 -0.192381
v 7.444406 -0.192381 -0.192381
v 7.444406 -0.192381 0.192381
v 7.444406 0.192381 0.192381
v -1.000000 -1.000000 -1.000000
v -1.000000 -1.000000 1.000000
v -1.000000 1.000000 1.000000
v -1.000000 1.000000 -1.000000
v -1.990486 -0.618863 -0.618863
v -1.990486 -0.618863 0.618863
v -1.990486 0.618863 0.618863
v -1.990486 0.618863 -0.618863
v -1.000000 -2.041078 2.167149
v -1.000000 -0.041078 2.167149
v 1.000000 -0.041078 2.167149
v 1.000000 -2.041078 2.167149
v -0.547462 -2.934744 2.674128
v -0.547462 -1.179505 2.987777
v 0.910635 -1.179505 2.987777
v 0.910635 -2.934744 2.674128
v 0.669628 -2.839474 4.185104
v 0.669628 -1.571917 4.185104
v 1.299518 -1.571917 3.085131
v 1.299518 -2.839474 3.085131
v 1.861822 -2.756762 4.586095
v 1.861822 -1.654629 4.586095
v 1.986512 -1.654629 3.491038
v 1.986512 -2.756762 3.491038
v 3.008773 -2.649302 4.475686
v 3.008773 -1.762089 4.475686
v 2.950273 -1.762089 3.590404
v 2.950273 -2.649302 3.590404
v 4.880289 -2.387039 4.089181
v 4.880289 -2.024351 4.089181
v 4.856375 -2.024351 3.727283
v 4.856375 -2.387039 3.727283
v -1.000000 -1.000000 -1.000000
v -1.000000 1.000000 -1.000000
v -1.000000 -1.000000 1.000000
v -1.000000 1.000000 1.000000
v 1.000000 -1.000000 -1.000000
v 1.000000 1.000000 -1.000000
v 1.000000 -1.000000 1.000000
v 1.000000 1.000000 1.000000
v 6.936371 0.351215 0.351215
v 6.936371 -0.351215 0.351215
v 6.936371 -0.351215 -0.351215
v 6.936371 0.351215 -0.351215
v 7.444406 0.192381 0.192381
v 7.444406 -0.192381 0.192381
v 7.444406 -0.192381 -0.192381
v 7.444406 0.192381 -0.192381
v -1.000000 -1.000000 1.000000
v -1.000000 -1.000000 -1.000000
v -1.000000 1.000000 -1.000000
v -1.000000 1.000000 1.000000
v -1.990486 -0.618863 0.618863
v -1.990486 -0.618863 -0.618863
v -1.990486 0.618863 -0.618863
v -1.990486 0.618863 0.618863
v -1.000000 -2.041078 -2.167149
v -1.000000 -0.041078 -2.167149
v 1.000000 -0.041078 -2.167149
v 1.000000 -2.041078 -2.167149
v -0.547462 -2.934744 -2.674128
v -0.547462 -1.179505 -2.987777
v 0.910635 -1.179505 -2.987777
v 0.910635 -2.934744 -2.674128
v 0.669628 -2.839474 -4.185104
v 0.669628 -1.571917 -4.185104
v 1.299518 -1.571917 -3.085131
v 1.299518 -2.839474 -3.085131
v 1.861822 -2.756762 -4.586095
v 1.861822 -1.654629 -4.586095
v 1.986512 -1.654629 -3.491038
v 1.986512 -2.756762 -3.491038
v 3.008773 -2.649302 -4.475686
v 3.008773 -1.762089 -4.475686
v 2.950273 -1.762089 -3.590404
v 2.950273 -2.649302 -3.590404
v 4.880289 -2.387039 -4.089181
v 4.880289 -2.024351 -4.089181
v 4.856375 -2.024351 -3.727283
v 4.856375 -2.387039 -3.727283
s off
f 4 17 20
f 27 30 31
f 6 9 8
f 1 26 2
f 7 1 3
f 4 6 8
f 12 13 9
f 8 10 7
f 5 12 6
f 7 11 5
f 13 15 14
f 9 14 10
f 11 16 12
f 10 15 11
f 20 23 19
f 1 19 18
f 2 20 19
f 3 18 17
f 23 21 22
f 18 21 17
f 17 24 20
f 19 22 18
f 5 25 1
f 2 27 6
f 5 27 28
f 32 33 29
f 28 31 32
f 28 29 25
f 25 30 26
f 33 40 37
f 29 34 30
f 31 34 35
f 32 35 36
f 39 42 43
f 33 38 34
f 34 39 35
f 36 39 40
f 44 45 41
f 39 44 40
f 40 41 37
f 38 41 42
f 47 45 48
f 41 46 42
f 43 46 47
f 43 48 44
f 52 65 51
f 75 78 74
f 57 54 56
f 74 49 50
f 49 55 51
f 54 52 56
f 61 60 57
f 58 56 55
f 60 53 54
f 59 55 53
f 63 61 62
f 62 57 58
f 64 59 60
f 63 58 59
f 67 72 68
f 49 67 50
f 50 68 52
f 51 66 49
f 69 71 70
f 65 70 66
f 72 65 68
f 70 67 66
f 73 53 49
f 75 50 54
f 53 75 54
f 81 80 77
f 76 79 75
f 77 76 73
f 78 73 74
f 81 88 84
f 82 77 78
f 79 82 78
f 80 83 79
f 87 90 86
f 86 81 82
f 87 82 83
f 88 83 84
f 93 92 89
f 92 87 88
f 89 88 85
f 86 89 85
f 93 95 96
f 94 89 90
f 91 94 90
f 96 91 92
f 4 3 17
f 27 26 30
f 6 12 9
f 1 25 26
f 7 5 1
f 4 2 6
f 12 16 13
f 8 9 10
f 5 11 12
f 7 10 11
f 13 16 15
f 9 13 14
f 11 15 16
f 10 14 15
f 20 24 23
f 1 2 19
f 2 4 20
f 3 1 18
f 23 24 21
f 18 22 21
f 17 21 24
f 19 23 22
f 5 28 25
f 2 26 27
f 5 6 27
f 32 36 33
f 28 27 31
f 28 32 29
f 25 29 30
f 33 36 40
f 29 33 34
f 31 30 34
f 32 31 35
f 39 38 42
f 33 37 38
f 34 38 39
f 36 35 39
f 44 48 45
f 39 43 44
f 40 44 41
f 38 37 41
f 47 46 45
f 41 45 46
f 43 42 46
f 43 47 48
f 52 68 65
f 75 79 78
f 57 60 54
f 74 73 49
f 49 53 55
f 54 50 52
f 61 64 60
f 58 57 56
f 60 59 53
f 59 58 55
f 63 64 61
f 62 61 57
f 64 63 59
f 63 62 58
f 67 71 72
f 49 66 67
f 50 67 68
f 51 65 66
f 69 72 71
f 65 69 70
f 72 69 65
f 70 71 67
f 73 76 53
f 75 74 50
f 53 76 75
f 81 84 80
f 76 80 79
f 77 80 76
f 78 77 73
f 81 85 88
f 82 81 77
f 79 83 82
f 80 84 83
f 87 91 90
f 86 85 81
f 87 86 82
f 88 87 83
f 93 96 92
f 92 91 87
f 89 92 88
f 86 90 89
f 93 94 95
f 94 93 89
f 91 95 94
f 96 95 91
v -1.000000 -1.000000 1.000000
v -1.000000 1.000000 1.000000
v 1.000000 -1.000000 1.000000
v 1.000000 1.000000 1.000000
v 6.936371 -0.351215 0.351215
v 6.936371 0.351215 0.351215
v 7.444406 -0.192381 0.192381
v 7.444406 0.192381 0.192381
v -1.000000 -1.000000 1.000000
v -1.000000 1.000000 1.000000
v -1.990486 -0.618863 0.618863
v -1.990486 0.618863 0.618863
v -1.000000 -2.041078 2.167149
v -1.000000 -0.041078 2.167149
v 1.000000 -0.041078 2.167149
v 1.000000 -2.041078 2.167149
v -0.547462 -2.934744 2.674128
v -0.547462 -1.179505 2.987777
v 0.910635 -1.179505 2.987777
v 0.910635 -2.934744 2.674128
v 0.669628 -2.839474 4.185104
v 0.669628 -1.571917 4.185104
v 1.299518 -1.571917 3.085131
v 1.299518 -2.839474 3.085131
v 1.861822 -2.756762 4.586095
v 1.861822 -1.654629 4.586095
v 1.986512 -1.654629 3.491038
v 1.986512 -2.756762 3.491038
v 3.008773 -2.649302 4.475686
v 3.008773 -1.762089 4.475686
v 2.950273 -1.762089 3.590404
v 2.950273 -2.649302 3.590404
v 4.880289 -2.387039 4.089181
v 4.880289 -2.024351 4.089181
v 4.856375 -2.024351 3.727283
v 4.856375 -2.387039 3.727283
v -1.000000 -1.000000 0.000000
v -1.000000 1.000000 0.000000
v 1.000000 -1.000000 0.000000
v 1.000000 1.000000 0.000000
v 0.000000 -1.000000 1.000000
v 0.000000 1.000000 1.000000
v 6.936371 -0.351215 0.000000
v 6.936371 0.351215 0.000000
v 6.936371 0.000000 0.351215
v 3.968186 0.675608 0.675608
v 3.968186 -0.675608 0.675608
v 7.444406 -0.192381 0.000000
v 7.444406 0.192381 0.000000
v 7.444406 0.000000 0.192381
v 7.190389 0.271798 0.271798
v 7.190389 -0.271798 0.271798
v -1.000000 -1.000000 0.000000
v -1.000000 1.000000 0.000000
v -1.000000 1.000000 1.000000
v -1.000000 -1.000000 1.000000
v -1.990486 -0.618863 0.000000
v -1.990486 0.000000 0.618863
v -1.990486 0.618863 0.000000
v -1.495243 0.809431 0.809431
v -1.495243 -0.809431 0.809431
v -1.495243 -0.809431 0.000000
v -1.990486 0.000000 0.000000
v -1.000000 -1.000000 0.000000
v -1.000000 1.000000 0.000000
v -1.495243 0.809431 0.000000
v 7.190389 -0.271798 0.000000
v 7.444406 0.000000 0.000000
v 3.968186 -0.675608 0.000000
v 7.190389 0.271798 0.000000
v 0.000000 1.000000 0.000000
v 0.000000 -1.000000 0.000000
v 3.968186 0.675608 0.000000
v -1.000000 -1.000000 -1.000000
v -1.000000 1.000000 -1.000000
v 1.000000 -1.000000 -1.000000
v 1.000000 1.000000 -1.000000
v 6.936371 -0.351215 -0.351215
v 6.936371 0.351215 -0.351215
v 7.444406 -0.192381 -0.192381
v 7.444406 0.192381 -0.192381
v -1.000000 -1.000000 -1.000000
v -1.000000 1.000000 -1.000000
v -1.990486 -0.618863 -0.618863
v -1.990486 0.618863 -0.618863
v -1.000000 -2.041078 -2.167149
v -1.000000 -0.041078 -2.167149
v 1.000000 -0.041078 -2.167149
v 1.000000 -2.041078 -2.167149
v -0.547462 -2.934744 -2.674128
v -0.547462 -1.179505 -2.987777
v 0.910635 -1.179505 -2.987777
v 0.910635 -2.934744 -2.674128
v 0.669628 -2.839474 -4.185104
v 0.669628 -1.571917 -4.185104
v 1.299518 -1.571917 -3.085131
v 1.299518 -2.839474 -3.085131
v 1.861822 -2.756762 -4.586095
v 1.861822 -1.654629 -4.586095
v 1.986512 -1.654629 -3.491038
v 1.986512 -2.756762 -3.491038
v 3.008773 -2.649302 -4.475686
v 3.008773 -1.762089 -4.475686
v 2.950273 -1.762089 -3.590404
v 2.950273 -2.649302 -3.590404
v 4.880289 -2.387039 -4.089181
v 4.880289 -2.024351 -4.089181
v 4.856375 -2.024351 -3.727283
v 4.856375 -2.387039 -3.727283
v -1.000000 -1.000000 0.000000
v -1.000000 1.000000 0.000000
v 1.000000 -1.000000 0.000000
v 1.000000 1.000000 0.000000
v 0.000000 -1.000000 -1.000000
v 0.000000 1.000000 -1.000000
v 6.936371 -0.351215 0.000000
v 6.936371 0.351215 0.000000
v 6.936371 0.000000 -0.351215
v 3.968186 0.675608 -0.675608
v 3.968186 -0.675608 -0.675608
v 7.444406 -0.192381 0.000000
v 7.444406 0.192381 0.000000
v 7.444406 0.000000 -0.192381
v 7.190389 0.271798 -0.271798
v 7.190389 -0.271798 -0.271798
v -1.000000 -1.000000 0.000000
v -1.000000 1.000000 0.000000
v -1.000000 1.000000 -1.000000
v -1.000000 -1.000000 -1.000000
v -1.990486 -0.618863 0.000000
v -1.990486 0.000000 -0.618863
v -1.990486 0.618863 0.000000
v -1.495243 0.809431 -0.809431
v -1.495243 -0.809431 -0.809431
v -1.495243 -0.809431 0.000000
v -1.990486 0.000000 0.000000
v -1.000000 -1.000000 0.000000
v -1.000000 1.000000 0.000000
v -1.495243 0.809431 0.000000
v 7.190389 -0.271798 0.000000
v 7.444406 0.000000 0.000000
v 3.968186 -0.675608 0.000000
v 7.190389 0.271798 0.000000
v 0.000000 1.000000 0.000000
v 0.000000 -1.000000 0.000000
v 3.968186 0.675608 0.000000
s off
f 111 114 115
f 169 102 140
f 97 110 98
f 146 103 144
f 154 155 159
f 148 101 139
f 152 106 105
f 160 105 149
f 137 97 133
f 137 112 109
f 138 110 111
f 99 111 112
f 116 117 113
f 112 115 116
f 112 113 109
f 109 114 110
f 117 124 121
f 113 118 114
f 115 118 119
f 116 119 120
f 123 126 127
f 117 122 118
f 118 123 119
f 120 123 124
f 128 129 125
f 123 128 124
f 124 125 121
f 122 125 126
f 131 129 132
f 125 130 126
f 127 130 131
f 127 132 128
f 162 156 150
f 157 105 106
f 133 152 160
f 151 150 106
f 98 161 151
f 97 151 152
f 149 105 157
f 148 146 141
f 165 101 143
f 135 143 99
f 141 102 142
f 99 142 100
f 136 142 169
f 166 140 147
f 138 100 136
f 184 187 183
f 242 175 215
f 183 170 171
f 219 177 218
f 232 181 227
f 221 176 236
f 225 179 224
f 233 178 225
f 210 172 208
f 185 172 210
f 183 171 211
f 172 184 173
f 190 189 186
f 185 188 184
f 186 185 182
f 187 182 183
f 190 197 193
f 191 186 187
f 188 191 187
f 189 192 188
f 196 199 195
f 195 190 191
f 196 191 192
f 197 192 193
f 202 201 198
f 201 196 197
f 198 197 194
f 195 198 194
f 202 204 205
f 203 198 199
f 200 203 199
f 205 200 201
f 229 181 235
f 230 180 227
f 206 225 170
f 224 223 234
f 171 234 207
f 170 224 171
f 231 226 180
f 220 219 214
f 174 238 216
f 216 208 172
f 215 175 214
f 215 172 173
f 209 215 173
f 239 218 177
f 211 171 207
f 111 110 114
f 169 142 102
f 97 109 110
f 144 164 146
f 164 145 146
f 145 104 146
f 153 107 154
f 154 108 155
f 159 153 154
f 139 163 148
f 163 144 103
f 148 163 103
f 152 151 106
f 160 152 105
f 133 168 137
f 168 135 137
f 135 99 137
f 109 97 137
f 137 99 112
f 111 100 138
f 138 98 110
f 99 100 111
f 116 120 117
f 112 111 115
f 112 116 113
f 109 113 114
f 117 120 124
f 113 117 118
f 115 114 118
f 116 115 119
f 123 122 126
f 117 121 122
f 118 122 123
f 120 119 123
f 128 132 129
f 123 127 128
f 124 128 125
f 122 121 125
f 131 130 129
f 125 129 130
f 127 126 130
f 127 131 132
f 162 155 108
f 156 106 150
f 162 108 156
f 106 156 157
f 156 108 154
f 154 107 157
f 156 154 157
f 133 97 152
f 151 161 150
f 98 134 161
f 97 98 151
f 157 107 158
f 107 153 158
f 158 149 157
f 102 141 147
f 141 101 148
f 147 141 146
f 148 103 146
f 146 104 147
f 165 139 101
f 135 165 143
f 142 143 141
f 143 101 141
f 99 143 142
f 136 100 142
f 102 147 140
f 147 104 166
f 104 145 166
f 136 167 138
f 167 134 138
f 134 98 138
f 184 188 187
f 242 213 175
f 183 182 170
f 218 237 219
f 237 217 219
f 217 176 219
f 227 180 226
f 232 228 181
f 227 226 232
f 217 236 176
f 236 212 221
f 212 174 221
f 225 178 179
f 233 222 178
f 208 241 210
f 241 206 210
f 206 170 210
f 210 170 182
f 182 185 210
f 211 173 184
f 184 183 211
f 172 185 184
f 190 193 189
f 185 189 188
f 186 189 185
f 187 186 182
f 190 194 197
f 191 190 186
f 188 192 191
f 189 193 192
f 196 200 199
f 195 194 190
f 196 195 191
f 197 196 192
f 202 205 201
f 201 200 196
f 198 201 197
f 195 199 198
f 202 203 204
f 203 202 198
f 200 204 203
f 205 204 200
f 228 235 181
f 235 223 229
f 223 179 229
f 181 229 227
f 229 179 230
f 227 229 230
f 179 178 230
f 206 233 225
f 224 179 223
f 171 224 234
f 170 225 224
f 180 230 231
f 230 178 222
f 231 230 222
f 174 214 221
f 214 175 220
f 221 214 219
f 220 177 219
f 219 176 221
f 174 212 238
f 216 238 208
f 174 216 214
f 216 215 214
f 215 216 172
f 209 242 215
f 177 220 239
f 220 175 213
f 239 220 213
f 207 240 211
f 240 209 211
f 209 173 211
